HIERARCHY
ROOT Hips
{
	OFFSET 0.000000 100.481300 0.000000
	CHANNELS 6 Xposition Yposition Zposition Xrotation Yrotation Zrotation
	JOINT Spine
	{
		OFFSET -0.279200 12.230698 -2.892100
		CHANNELS 3 Xrotation Yrotation Zrotation
		JOINT Spine1
		{
			OFFSET -0.325700 14.269203 -3.374200
			CHANNELS 3 Xrotation Yrotation Zrotation
			JOINT Spine2
			{
				OFFSET -0.372300 16.307602 -0.352600
				CHANNELS 3 Xrotation Yrotation Zrotation
				JOINT Neck
				{
					OFFSET -0.418800 17.814194 8.416900
					CHANNELS 3 Xrotation Yrotation Zrotation
					JOINT Head
					{
						OFFSET 0.000000 7.031097 3.806800
						CHANNELS 3 Xrotation Yrotation Zrotation
						JOINT HeadTop_End
						{
							OFFSET 0.000000 24.646606 12.978600
							CHANNELS 3 Xrotation Yrotation Zrotation
							End Site
							{
								OFFSET 0.000000 27.854965 0.000000
							}
						}
					}
				}
				JOINT LeftShoulder
				{
					OFFSET 16.952999 14.495407 -7.737500
					CHANNELS 3 Xrotation Yrotation Zrotation
					JOINT LeftArm
					{
						OFFSET 9.308998 -2.777710 0.208600
						CHANNELS 3 Xrotation Yrotation Zrotation
						JOINT LeftForeArm
						{
							OFFSET 29.972298 0.000000 0.000000
							CHANNELS 3 Xrotation Yrotation Zrotation
							JOINT LeftHand
							{
								OFFSET 26.026505 0.000000 0.000000
								CHANNELS 3 Xrotation Yrotation Zrotation
								JOINT LeftHandThumb1
								{
									OFFSET 12.240501 -7.147949 9.207150
									CHANNELS 3 Xrotation Yrotation Zrotation
									JOINT LeftHandThumb2
									{
										OFFSET 4.138618 -2.389435 2.389433
										CHANNELS 3 Xrotation Yrotation Zrotation
										JOINT LeftHandThumb3
										{
											OFFSET 2.726913 -1.574387 1.574386
											CHANNELS 3 Xrotation Yrotation Zrotation
											JOINT LeftHandThumb4
											{
												OFFSET 3.941010 -2.275345 2.275342
												CHANNELS 3 Xrotation Yrotation Zrotation
												End Site
												{
													OFFSET -0.005798 5.087799 0.009903
												}
											}
										}
									}
								}
								JOINT LeftHandIndex1
								{
									OFFSET 24.424698 -1.985611 5.953459
									CHANNELS 3 Xrotation Yrotation Zrotation
									JOINT LeftHandIndex2
									{
										OFFSET 6.426697 0.000000 0.000000
										CHANNELS 3 Xrotation Yrotation Zrotation
										JOINT LeftHandIndex3
										{
											OFFSET 5.337898 0.000000 0.000000
											CHANNELS 3 Xrotation Yrotation Zrotation
											JOINT LeftHandIndex4
											{
												OFFSET 4.409401 0.000000 0.000000
												CHANNELS 3 Xrotation Yrotation Zrotation
												End Site
												{
													OFFSET 0.000000 4.409363 0.014373
												}
											}
										}
									}
								}
								JOINT LeftHandMiddle1
								{
									OFFSET 23.810104 0.000000 0.000000
									CHANNELS 3 Xrotation Yrotation Zrotation
									JOINT LeftHandMiddle2
									{
										OFFSET 7.176498 0.000000 0.000000
										CHANNELS 3 Xrotation Yrotation Zrotation
										JOINT LeftHandMiddle3
										{
											OFFSET 6.774902 0.000000 0.000000
											CHANNELS 3 Xrotation Yrotation Zrotation
											JOINT LeftHandMiddle4
											{
												OFFSET 5.403328 0.000000 0.000000
												CHANNELS 3 Xrotation Yrotation Zrotation
												End Site
												{
													OFFSET -0.027702 5.403244 0.017414
												}
											}
										}
									}
								}
								JOINT LeftHandRing1
								{
									OFFSET 22.908401 -0.839279 -6.020567
									CHANNELS 3 Xrotation Yrotation Zrotation
									JOINT LeftHandRing2
									{
										OFFSET 6.337502 0.000000 0.000000
										CHANNELS 3 Xrotation Yrotation Zrotation
										JOINT LeftHandRing3
										{
											OFFSET 5.779297 0.000000 0.000000
											CHANNELS 3 Xrotation Yrotation Zrotation
											JOINT LeftHandRing4
											{
												OFFSET 4.965698 0.000000 0.000000
												CHANNELS 3 Xrotation Yrotation Zrotation
												End Site
												{
													OFFSET 0.000000 4.965668 0.016186
												}
											}
										}
									}
								}
								JOINT LeftHandPinky1
								{
									OFFSET 20.037003 -1.530319 -10.950146
									CHANNELS 3 Xrotation Yrotation Zrotation
									JOINT LeftHandPinky2
									{
										OFFSET 5.254700 0.000000 0.000000
										CHANNELS 3 Xrotation Yrotation Zrotation
										JOINT LeftHandPinky3
										{
											OFFSET 4.810204 0.000000 0.000000
											CHANNELS 3 Xrotation Yrotation Zrotation
											JOINT LeftHandPinky4
											{
												OFFSET 3.647202 0.000000 0.000000
												CHANNELS 3 Xrotation Yrotation Zrotation
												End Site
												{
													OFFSET 0.000000 3.647186 0.011889
												}
											}
										}
									}
								}
							}
						}
					}
				}
				JOINT RightShoulder
				{
					OFFSET -15.141001 14.495407 -7.737500
					CHANNELS 3 Xrotation Yrotation Zrotation
					JOINT RightArm
					{
						OFFSET -9.308998 -2.777710 0.208500
						CHANNELS 3 Xrotation Yrotation Zrotation
						JOINT RightForeArm
						{
							OFFSET -29.972300 0.000000 0.000000
							CHANNELS 3 Xrotation Yrotation Zrotation
							JOINT RightHand
							{
								OFFSET -26.026505 0.000000 0.000000
								CHANNELS 3 Xrotation Yrotation Zrotation
								JOINT RightHandThumb1
								{
									OFFSET -12.240601 -7.148026 9.207092
									CHANNELS 3 Xrotation Yrotation Zrotation
									JOINT RightHandThumb2
									{
										OFFSET -4.138618 -2.389435 2.389433
										CHANNELS 3 Xrotation Yrotation Zrotation
										JOINT RightHandThumb3
										{
											OFFSET -2.726974 -1.574417 1.574421
											CHANNELS 3 Xrotation Yrotation Zrotation
											JOINT RightHandThumb4
											{
												OFFSET -3.941010 -2.275345 2.275343
												CHANNELS 3 Xrotation Yrotation Zrotation
												End Site
												{
													OFFSET 0.005814 5.087799 0.009927
												}
											}
										}
									}
								}
								JOINT RightHandIndex1
								{
									OFFSET -24.424698 -1.985657 5.953444
									CHANNELS 3 Xrotation Yrotation Zrotation
									JOINT RightHandIndex2
									{
										OFFSET -6.426697 0.000000 0.000000
										CHANNELS 3 Xrotation Yrotation Zrotation
										JOINT RightHandIndex3
										{
											OFFSET -5.337898 0.000000 0.000000
											CHANNELS 3 Xrotation Yrotation Zrotation
											JOINT RightHandIndex4
											{
												OFFSET -4.409401 0.000000 0.000000
												CHANNELS 3 Xrotation Yrotation Zrotation
												End Site
												{
													OFFSET 0.000000 4.409363 0.014408
												}
											}
										}
									}
								}
								JOINT RightHandMiddle1
								{
									OFFSET -23.810097 0.000000 0.000000
									CHANNELS 3 Xrotation Yrotation Zrotation
									JOINT RightHandMiddle2
									{
										OFFSET -7.176498 0.000000 0.000000
										CHANNELS 3 Xrotation Yrotation Zrotation
										JOINT RightHandMiddle3
										{
											OFFSET -6.774902 0.000000 0.000000
											CHANNELS 3 Xrotation Yrotation Zrotation
											JOINT RightHandMiddle4
											{
												OFFSET -5.403328 0.000000 0.000000
												CHANNELS 3 Xrotation Yrotation Zrotation
												End Site
												{
													OFFSET 0.027702 5.403244 0.017457
												}
											}
										}
									}
								}
								JOINT RightHandRing1
								{
									OFFSET -22.908302 -0.839325 -6.020576
									CHANNELS 3 Xrotation Yrotation Zrotation
									JOINT RightHandRing2
									{
										OFFSET -6.337502 0.000000 0.000000
										CHANNELS 3 Xrotation Yrotation Zrotation
										JOINT RightHandRing3
										{
											OFFSET -5.779297 0.000000 0.000000
											CHANNELS 3 Xrotation Yrotation Zrotation
											JOINT RightHandRing4
											{
												OFFSET -4.965698 0.000000 0.000000
												CHANNELS 3 Xrotation Yrotation Zrotation
												End Site
												{
													OFFSET 0.000000 4.965668 0.016226
												}
											}
										}
									}
								}
								JOINT RightHandPinky1
								{
									OFFSET -20.037003 -1.530334 -10.950259
									CHANNELS 3 Xrotation Yrotation Zrotation
									JOINT RightHandPinky2
									{
										OFFSET -5.254700 0.000000 0.000000
										CHANNELS 3 Xrotation Yrotation Zrotation
										JOINT RightHandPinky3
										{
											OFFSET -4.810204 0.000000 0.000000
											CHANNELS 3 Xrotation Yrotation Zrotation
											JOINT RightHandPinky4
											{
												OFFSET -3.647202 0.000000 0.000000
												CHANNELS 3 Xrotation Yrotation Zrotation
												End Site
												{
													OFFSET 0.000000 3.647186 0.011917
												}
											}
										}
									}
								}
							}
						}
					}
				}
			}
		}
	}
	JOINT LeftUpLeg
	{
		OFFSET 15.427100 -6.655098 0.678600
		CHANNELS 3 Xrotation Yrotation Zrotation
		JOINT LeftLeg
		{
			OFFSET 4.081073 -39.591068 13.024000
			CHANNELS 3 Xrotation Yrotation Zrotation
			JOINT LeftFoot
			{
				OFFSET -4.081074 -37.707932 -15.979700
				CHANNELS 3 Xrotation Yrotation Zrotation
				JOINT LeftToeBase
				{
					OFFSET 5.346399 -15.068900 20.645000
					CHANNELS 3 Xrotation Yrotation Zrotation
					JOINT LeftToe_End
					{
						OFFSET 2.754700 0.931300 11.300900
						CHANNELS 3 Xrotation Yrotation Zrotation
						End Site
						{
							OFFSET 0.000000 11.669021 0.000000
						}
					}
				}
			}
		}
	}
	JOINT RightUpLeg
	{
		OFFSET -15.569500 -6.655098 0.678600
		CHANNELS 3 Xrotation Yrotation Zrotation
		JOINT RightLeg
		{
			OFFSET -4.081825 -39.591045 13.023800
			CHANNELS 3 Xrotation Yrotation Zrotation
			JOINT RightFoot
			{
				OFFSET 4.081824 -37.707954 -15.979600
				CHANNELS 3 Xrotation Yrotation Zrotation
				JOINT RightToeBase
				{
					OFFSET -5.346400 -15.068900 20.645000
					CHANNELS 3 Xrotation Yrotation Zrotation
					JOINT RightToe_End
					{
						OFFSET -2.754700 0.931300 11.300900
						CHANNELS 3 Xrotation Yrotation Zrotation
						End Site
						{
							OFFSET 0.000000 11.669021 0.000000
						}
					}
				}
			}
		}
	}
}
MOTION
Frames: 4
Frame Time: 0.033333
-1.780307 44.270653 13.348026 -14.103970 -1.261589 3.799061 8.442450 2.243810 3.275150 16.830527 4.240576 5.326730 16.830522 4.240567 5.326728 8.686090 -9.229200 -0.599156 -11.376133 -52.114186 20.946042 0.000002 0.000001 -0.000000 -10.989613 -19.512802 -42.464130 13.566900 -15.630143 -21.523789 -6.330192 -26.116173 -2.381646 2.579024 -30.678447 40.023068 -5.781963 -17.408837 15.673532 -11.458813 29.458988 -26.351660 -0.000003 -0.000003 -0.000010 -0.000001 -0.000000 0.000001 -3.567096 3.842321 -60.590649 -10.164961 -4.550863 -53.684477 -0.000002 0.000003 0.000002 -0.000001 0.000000 -0.000001 -12.373934 15.012986 -61.237584 -1.436784 -2.870018 -46.000436 0.000001 0.000002 0.000002 -0.000003 -0.000002 -0.000000 -11.901699 28.970370 -62.563078 -1.688368 -4.215965 -49.240763 0.000004 0.000000 -0.000002 -0.000002 0.000001 0.000001 -15.252166 30.084811 -69.930516 -0.435365 -5.276132 -20.890769 0.000000 -0.000000 0.000001 -0.000001 0.000001 0.000001 0.793583 9.779779 6.622435 -65.362807 16.214294 25.116714 -12.695116 11.242960 2.531406 -15.197699 -7.490652 -3.279284 18.390161 6.852426 -7.508118 4.446419 -32.640033 -19.926129 -0.000001 0.000003 -0.000012 -0.000002 0.000002 -0.000002 0.267323 7.039863 68.548981 -1.614794 -2.179553 100.525747 0.000002 0.000000 -0.000000 -0.000001 0.000000 -0.000002 -4.438744 11.744090 75.791058 -5.326018 2.920540 105.309974 0.000009 -0.000006 0.000005 -0.000002 -0.000000 0.000001 -9.232311 13.333468 119.365520 -7.712988 5.871082 117.451346 0.000001 0.000002 0.000001 0.000001 0.000000 0.000000 -10.039907 15.207105 118.844431 -5.176041 9.851783 91.656392 -0.000003 -0.000001 -0.000001 -0.000001 0.000003 -0.000001 -76.311723 2.394522 8.136054 101.977081 -1.584154 -2.689421 -4.253684 -1.803301 1.597834 -17.763860 -0.172787 0.608320 -0.000000 0.000001 0.000000 -77.298091 7.642686 -20.340686 99.414585 5.004255 4.638520 -6.779239 6.251225 -1.666947 -1.595874 -0.174993 0.438482 -0.000000 -0.000001 -0.000000 
-1.787864 44.291458 13.358551 -13.977133 -1.259786 3.880707 8.428390 2.262024 3.305661 16.801009 4.279226 5.383159 16.801009 4.279227 5.383163 8.466181 -9.234585 -0.575984 -11.566960 -52.108756 20.924324 -0.000000 0.000001 -0.000000 -11.143721 -19.831468 -42.503495 13.586121 -15.652743 -21.682292 -6.504453 -25.564134 -2.368566 2.555872 -31.096103 39.986765 -5.824467 -17.419865 15.576637 -11.458803 29.458982 -26.351660 -0.000001 0.000003 -0.000010 -0.000000 0.000003 -0.000001 -3.567097 3.842322 -60.590649 -10.164957 -4.550860 -53.684474 0.000001 0.000005 0.000000 0.000001 0.000002 0.000001 -12.373934 15.012986 -61.237584 -1.436786 -2.870019 -46.000433 0.000003 0.000002 0.000002 -0.000002 -0.000001 0.000001 -11.901699 28.970377 -62.563078 -1.688367 -4.215962 -49.240767 0.000003 0.000001 -0.000004 0.000004 -0.000000 -0.000001 -15.252168 30.084808 -69.930516 -0.435367 -5.276132 -20.890769 0.000000 0.000000 -0.000001 0.000002 0.000002 0.000001 0.799827 9.856568 6.273481 -65.790110 17.061611 24.584332 -12.563287 8.360298 1.871854 -14.389129 -7.361175 -3.654835 18.507641 6.945036 -7.364042 4.693283 -32.783440 -19.702439 -0.000003 0.000000 -0.000009 -0.000003 0.000001 -0.000000 0.329962 7.014925 67.682366 -1.530040 -2.164460 99.671687 0.000002 -0.000002 -0.000005 0.000001 -0.000001 -0.000003 -4.372241 11.727063 74.918590 -5.251612 2.939608 104.448052 0.000011 -0.000005 0.000003 0.000002 0.000003 -0.000001 -9.182387 13.362282 118.764572 -7.667474 5.894269 116.856750 0.000001 0.000001 0.000000 -0.000000 0.000000 -0.000001 -9.981423 15.237696 118.240492 -5.142250 9.853217 91.218228 -0.000001 0.000002 -0.000002 0.000003 0.000002 -0.000002 -76.377429 2.504825 8.139666 101.931052 -1.576119 -2.684212 -4.268784 -1.830708 1.618238 -17.725768 -0.172662 0.607403 0.000000 0.000000 0.000000 -77.426232 7.709622 -20.346415 99.420473 4.982272 4.632246 -6.784371 6.253854 -1.693827 -1.593307 -0.174965 0.438619 -0.000000 0.000000 -0.000000 
-1.799244 44.314346 13.371675 -13.854456 -1.289931 3.962316 8.417633 2.280662 3.325664 16.778479 4.319302 5.418435 16.778484 4.319308 5.418440 8.266602 -9.219087 -0.504736 -11.672759 -51.977067 20.934062 -0.000000 -0.000001 -0.000000 -11.277248 -20.120330 -42.484555 13.540514 -15.680026 -21.903959 -6.732103 -24.969053 -2.374036 2.696406 -31.527388 39.994210 -5.856223 -17.793288 15.849956 -11.458802 29.458985 -26.351659 -0.000001 0.000000 -0.000009 -0.000002 0.000001 -0.000000 -3.567104 3.842324 -60.590656 -10.164959 -4.550861 -53.684474 -0.000004 0.000005 -0.000001 -0.000003 0.000001 -0.000002 -12.373940 15.012986 -61.237591 -1.436783 -2.870017 -46.000433 -0.000001 0.000002 0.000000 -0.000002 -0.000003 -0.000002 -11.901704 28.970374 -62.563085 -1.688363 -4.215966 -49.240770 0.000006 0.000001 -0.000003 0.000000 -0.000000 0.000000 -15.252171 30.084811 -69.930516 -0.435367 -5.276137 -20.890764 -0.000002 0.000001 0.000000 -0.000000 0.000000 -0.000001 0.806217 9.989763 5.967983 -65.893820 17.572924 23.985623 -12.486966 6.331450 1.413060 -13.921387 -7.472465 -3.719413 18.619429 7.050577 -7.210659 4.933602 -32.904990 -19.470023 -0.000002 -0.000001 -0.000005 0.000001 0.000002 -0.000000 0.393478 6.988514 66.798348 -1.443342 -2.150357 98.800394 -0.000002 -0.000003 -0.000001 -0.000000 -0.000003 -0.000001 -4.304662 11.708679 74.028602 -5.175434 2.958112 103.568658 0.000012 -0.000006 0.000005 -0.000001 -0.000001 0.000002 -9.128633 13.392279 118.122016 -7.618621 5.918567 116.221092 -0.000000 -0.000000 0.000001 -0.000000 -0.000000 0.000000 -9.918514 15.269766 117.594670 -5.105317 9.854465 90.736256 -0.000001 0.000002 -0.000000 -0.000002 0.000001 -0.000002 -76.419626 2.597259 8.161665 101.886827 -1.576861 -2.682147 -4.299233 -1.841970 1.613899 -17.703717 -0.172661 0.607129 0.000001 0.000000 0.000000 -77.554879 7.776690 -20.306043 99.424024 4.956587 4.626236 -6.787232 6.237435 -1.731223 -1.588820 -0.174943 0.438853 0.000000 -0.000000 -0.000000 
-1.814053 44.338631 13.387695 -13.736316 -1.372610 4.026259 8.412661 2.287876 3.334782 16.768058 4.338314 5.433709 16.768067 4.338320 5.433718 8.117151 -9.192600 -0.434534 -11.710037 -51.787123 20.936400 -0.000000 0.000001 0.000001 -11.390864 -20.353696 -42.432082 13.453748 -15.642306 -22.170294 -6.949367 -24.412387 -2.377267 2.889195 -31.954869 40.097725 -5.828251 -18.195028 16.285362 -11.458801 29.458985 -26.351655 0.000001 0.000000 -0.000009 0.000001 -0.000001 -0.000001 -3.567098 3.842325 -60.590649 -10.164961 -4.550859 -53.684477 -0.000005 0.000002 -0.000001 -0.000003 -0.000001 0.000001 -12.373934 15.012983 -61.237591 -1.436784 -2.870021 -46.000436 0.000005 0.000005 0.000003 -0.000004 0.000000 0.000001 -11.901701 28.970374 -62.563085 -1.688367 -4.215965 -49.240767 0.000007 0.000002 -0.000001 0.000001 -0.000001 0.000000 -15.252168 30.084811 -69.930516 -0.435366 -5.276133 -20.890760 0.000000 -0.000001 -0.000002 -0.000001 -0.000000 0.000000 0.812363 10.158513 5.743443 -65.650556 17.446718 23.481777 -12.470326 6.035883 1.346153 -13.725048 -8.071725 -3.926442 18.725302 7.168467 -7.047758 5.166668 -33.004102 -19.229247 0.000001 0.000000 -0.000008 0.000000 -0.000000 0.000000 0.457710 6.960620 65.898123 -1.354848 -2.137365 97.913084 -0.000001 -0.000000 0.000000 0.000002 0.000000 -0.000000 -4.236178 11.688903 73.122346 -5.097589 2.975903 102.673084 0.000011 -0.000004 0.000003 0.000001 -0.000001 -0.000000 -9.070974 13.423280 117.438245 -7.566312 5.943831 115.544712 0.000000 0.000001 0.000000 0.000000 0.000000 -0.000001 -9.851218 15.303121 116.907458 -5.064871 9.854991 90.210461 -0.000001 -0.000000 0.000000 -0.000001 -0.000000 -0.000000 -76.434291 2.661669 8.237755 101.855585 -1.585242 -2.679515 -4.362031 -1.853155 1.584828 -17.686720 -0.172685 0.606977 -0.000001 -0.000001 0.000000 -77.691435 7.834466 -20.189134 99.416211 4.930679 4.621050 -6.773081 6.195683 -1.769245 -1.583155 -0.174893 0.439151 0.000000 0.000001 0.000000 
